<?xml version="1.0" standalone="no"?>
<!DOCTYPE svg PUBLIC "-//W3C//DTD SVG 20010904//EN"
 "http://www.w3.org/TR/2001/REC-SVG-20010904/DTD/svg10.dtd">
<svg version="1.0" xmlns="http://www.w3.org/2000/svg"
 width="225.000000pt" height="225.000000pt" viewBox="0 0 225.000000 225.000000"
 preserveAspectRatio="xMidYMid meet">

<g transform="translate(0.000000,225.000000) scale(0.100000,-0.100000)"
fill="#000000" stroke="none">
<path d="M1177 2174 c-2 -15 -1 -38 3 -53 7 -21 8 -16 9 27 1 56 -4 67 -12 26z"/>
<path d="M1051 2133 l-1 -62 -37 -6 c-331 -53 -578 -206 -742 -459 -62 -97
-114 -218 -98 -228 7 -3 114 -41 238 -82 219 -74 299 -91 299 -63 0 21 -55
102 -142 209 -44 55 -78 101 -75 104 2 3 39 -13 82 -35 173 -90 276 -200 291
-313 5 -36 2 -46 -15 -62 -21 -19 -24 -18 -298 64 -153 46 -306 96 -340 111
-63 28 -73 28 -73 -1 0 -13 15 -20 63 -29 34 -7 188 -50 341 -97 301 -92 318
-94 332 -39 3 14 10 25 14 25 17 0 76 -48 98 -80 33 -49 15 -63 -85 -69 -67
-3 -82 -7 -113 -32 -84 -67 -221 -96 -370 -79 -47 5 -94 10 -104 10 -39 0 1
19 119 55 201 63 251 91 213 123 -27 21 -516 158 -527 146 -3 -2 -7 -71 -9
-152 -3 -119 0 -165 16 -243 26 -125 76 -246 144 -350 64 -98 165 -211 183
-207 16 4 209 218 276 307 96 126 68 129 -263 32 -38 -11 -68 -15 -68 -10 0
16 160 136 223 167 109 53 215 63 275 26 12 -8 22 -24 22 -35 0 -18 -281 -374
-384 -487 -31 -34 -37 -45 -26 -52 10 -6 24 7 51 45 20 29 114 146 208 258
179 214 191 236 151 272 -19 17 -19 19 -3 38 27 29 68 47 108 47 34 0 35 -1
35 -37 0 -21 -11 -62 -25 -90 -22 -49 -23 -55 -10 -88 23 -54 19 -162 -10
-252 -25 -77 -99 -223 -113 -223 -4 0 -2 64 6 143 14 152 12 222 -8 240 -9 9
-25 -2 -68 -48 -66 -70 -262 -326 -262 -342 0 -17 194 -109 279 -132 248 -69
496 -44 729 71 57 28 106 57 109 64 11 28 -303 394 -326 380 -20 -13 -21 -73
-3 -235 l18 -164 -23 29 c-34 43 -99 171 -117 233 -39 133 -5 291 63 291 15 0
404 -442 431 -490 7 -12 11 -13 21 -2 11 10 2 24 -47 75 -34 34 -131 144 -217
243 -86 100 -163 184 -172 188 -9 3 -29 -1 -45 -9 -16 -8 -31 -15 -34 -15 -14
0 -46 84 -46 120 0 38 2 40 30 40 33 0 79 -20 119 -52 20 -15 34 -17 87 -12
108 11 237 -41 380 -156 31 -24 51 -46 46 -48 -5 -1 -73 13 -150 33 -151 38
-232 45 -232 21 0 -20 62 -96 206 -251 l127 -136 34 33 c91 87 183 226 234
353 52 132 71 247 67 412 -2 78 -7 145 -11 150 -5 4 -68 -7 -140 -26 -274 -69
-407 -114 -407 -137 0 -20 58 -47 210 -94 74 -24 139 -46 144 -51 16 -14 -67
-24 -194 -23 -144 0 -214 21 -281 81 -35 32 -41 33 -86 28 -56 -8 -126 12
-131 36 -4 21 42 75 81 96 29 14 31 14 43 -3 25 -36 35 -44 56 -44 11 0 137
36 279 80 142 43 293 86 336 95 43 9 78 17 79 18 1 1 -2 12 -7 24 l-8 22 -63
-29 c-64 -30 -584 -190 -616 -190 -47 0 -55 66 -18 146 30 65 74 115 150 169
60 42 198 117 204 110 2 -2 -25 -39 -61 -82 -106 -129 -157 -204 -157 -230 0
-24 2 -24 43 -18 45 7 445 138 483 158 l23 12 -24 59 c-62 152 -196 323 -333
425 -129 95 -302 166 -465 191 -43 6 -81 9 -84 7 -2 -3 -7 -133 -10 -289 -5
-252 -4 -285 10 -296 14 -12 20 -11 37 1 25 18 87 97 160 205 30 45 56 80 58
78 1 -2 -6 -47 -17 -100 -31 -152 -89 -263 -166 -316 -58 -40 -87 -46 -108
-22 -17 18 -18 45 -13 343 3 178 8 341 11 362 7 37 7 37 -28 37 l-34 0 8 -42
c4 -24 8 -190 9 -370 0 -314 1 -329 20 -348 11 -11 32 -20 46 -20 24 0 25 -2
19 -32 -9 -41 -29 -81 -50 -98 -13 -11 -19 -10 -35 5 -19 17 -43 73 -54 125
-3 16 -19 32 -42 45 -93 50 -172 206 -199 395 l-7 45 44 -63 c210 -307 229
-312 227 -53 0 86 -4 212 -8 281 -4 69 -4 139 0 157 4 18 3 47 -1 65 -7 28 -8
23 -9 -29z"/>
<path d="M1161 2104 c0 -11 3 -14 6 -6 3 7 2 16 -1 19 -3 4 -6 -2 -5 -13z"/>
</g>
</svg>
